<svg width="500" height="483" viewBox="0 0 500 483" fill="none" xmlns="http://www.w3.org/2000/svg">
<g clip-path="url(#clip0)">
<path d="M122.963 406.296C13.1854 362.148 14.815 221.555 40.0002 208C65.1854 194.444 124.148 286.889 151.111 272.148C181.556 255.407 91.8521 78.5184 120.963 68.4443C140.222 61.7036 217.259 206 253.259 195.63C282.148 187.407 236.963 102.518 292.889 71.9999C332.222 50.5184 401.334 102.296 432.445 153.481C523.63 302.296 338.889 493.111 122.963 406.296Z" fill="#E7E8FE"/>
<path d="M493.111 418.37H242.519L241.186 417.482C215.186 400.667 209.852 380.444 214.667 379.185C219.482 377.926 238.667 399.185 268.074 399.037C289.26 399.037 294.223 387.63 314.889 387.482C345.852 387.482 366.074 412.296 377.482 409.704C387.26 407.704 377.111 388.296 384.074 387.482C392.593 386.296 407.408 413.333 432.889 413.778C449.778 413.778 457.63 402.222 471.778 403.556C476.177 403.907 480.414 405.369 484.093 407.805C487.772 410.24 490.773 413.57 492.815 417.482C492.947 417.766 493.047 418.064 493.111 418.37Z" fill="#6761DB"/>
<path d="M493.111 418.37H295.185L294.074 417.63C273.481 404.444 269.333 388.519 273.111 387.556C276.889 386.593 292.148 403.333 315.333 403.185C332.074 403.185 336 394.222 352.37 394.074C376.815 394.074 392.814 413.556 401.852 411.704C409.259 410.148 401.852 394.889 407.037 394.074C413.629 393.111 425.555 414.37 445.555 414.741C458.963 414.741 465.185 405.63 476.296 406.667C479.768 406.959 483.112 408.115 486.023 410.03C488.934 411.945 491.319 414.557 492.963 417.63L493.111 418.37Z" fill="#7B6BFF"/>
<path d="M164.074 43.5555C151.407 67.7777 200 123.333 228.74 117.63C255.629 112.444 260.889 69.3333 236.148 49.9259C213.555 32.7407 174.592 23.4074 164.074 43.5555Z" fill="#E7E8FE"/>
<path d="M27.2596 437.704C27.2596 446.148 65.2596 454 91.63 456.593C119.715 458.886 147.982 457.291 175.63 451.852C265.63 439.63 336.223 464.296 337.26 459.259C338.297 454.222 283.926 443.704 284.741 437.555C286.371 425.704 487.778 450.074 490.519 434C491.186 430.222 480.371 424.889 468.297 420.37L463.26 418.444H110.667L97.4818 420.37C39.4818 428.37 27.2596 432.963 27.2596 437.704Z" fill="#E7E8FE"/>
<path d="M500 417.259H0V419.333H500V417.259Z" fill="#03070A"/>
<path d="M250.741 420.963C249.92 419.666 248.978 418.451 247.926 417.333L249.629 415.704C250.802 416.926 251.845 418.266 252.741 419.704L250.741 420.963Z" fill="#C0BDFF"/>
<path d="M107.333 471.407H98.1483V469.037H107.852V471.407H107.333ZM117.778 471.407V468.889C121.037 468.889 124.296 468.889 127.556 468.889V471.259L117.778 471.407ZM88.1483 471.407C84.8396 471.407 81.5804 471.185 78.3705 470.741V468.37L88.0742 469.111L88.1483 471.407ZM137.259 470.815V468.444L146.963 467.63V470L137.259 470.815ZM68.5927 469.63L59.2594 467.63V465.259C62.2964 465.852 65.5557 466.37 68.889 466.815L68.5927 469.63ZM156.815 468.963V466.593L166.519 465.333L166.889 467.63L156.815 468.963ZM176.296 466.148L175.926 463.778L185.482 462.074L186 464.37L176.296 466.148ZM49.1853 466.148C45.852 465.259 42.6668 464.37 39.7038 463.333L40.4446 461.111C43.3335 462.074 46.4446 463.037 49.7779 463.852L49.1853 466.148ZM195.556 462.37L195.185 459.259C198.445 458.519 201.63 457.778 204.667 456.963L205.259 459.259C202.222 460.296 199.037 461.037 195.704 461.778L195.556 462.37ZM30.6668 459.259C25.7779 456.889 23.2594 454.741 23.2594 452.444C23.1893 452.077 23.1893 451.7 23.2594 451.333L25.4816 452.074C25.4816 452.667 26.0742 454.222 31.3335 456.741L30.6668 459.259ZM214.815 456.741L214.148 454.444C217.333 453.481 220.445 452.444 223.333 451.333L224.148 453.556C221.185 454.667 218 455.704 214.815 456.741ZM233.259 449.704L232.296 447.63C235.224 446.269 238.069 444.735 240.815 443.037L242.074 445.037C239.219 446.79 236.249 448.349 233.185 449.704H233.259ZM33.2594 447.63L32.5186 445.407C34.9631 444.593 38.0001 443.704 42.0742 442.667L42.5927 444.963C38.6668 446 35.7038 446.815 33.2594 447.63ZM51.852 442.741V440.37H53.4075L61.4075 438.444L61.926 440.741L53.9261 442.667L51.852 442.741ZM249.556 438.815L248.148 437.037C250.314 435.036 251.879 432.471 252.667 429.63L254.963 430.148C254.11 433.461 252.338 436.465 249.852 438.815H249.556ZM70.9631 438.074L70.3705 435.778C73.852 434.889 76.889 434 79.7038 433.037L80.4446 435.333C77.926 436.222 74.8149 437.037 71.2594 438.074H70.9631ZM89.7038 431.852L88.889 429.63C91.8207 428.39 94.6036 426.825 97.1853 424.963L98.5927 426.889C95.9175 428.851 93.0362 430.515 90.0001 431.852H89.7038ZM104.519 418.741L102.222 418.074C103.117 415.204 103.117 412.129 102.222 409.259L104.445 408.519C105.033 410.235 105.333 412.037 105.333 413.852C105.325 415.479 105.101 417.098 104.667 418.667L104.519 418.741ZM97.1112 401.482C94.8217 399.158 92.3441 397.027 89.7038 395.111L91.1112 393.259C93.7618 395.244 96.2397 397.449 98.5186 399.852L97.1112 401.482ZM82.2964 389.407L78.1483 386.519L74.2224 383.778L75.5557 381.852L79.5557 384.593L83.6298 387.407L82.2964 389.407ZM66.6668 377.778C63.852 375.704 61.2594 373.778 59.2594 371.778L60.7409 369.926C63.1112 371.926 65.6298 373.852 68.1483 375.926L66.6668 377.778ZM51.2594 365.63C48.8149 363.407 46.4446 361.111 43.852 358.741L45.5557 357.111C47.7779 359.407 50.0742 361.704 52.5186 363.926L51.2594 365.63ZM37.7038 351.333C35.6298 348.815 33.6298 346.148 31.7779 343.407L33.7038 342.074C35.5557 344.741 37.4816 347.333 39.5557 349.482L37.7038 351.333ZM26.5186 335.111C24.8149 332.222 23.1853 329.333 21.7038 326.519L23.7779 325.407C25.2594 328.222 26.889 331.037 28.5186 333.852L26.5186 335.111ZM17.4075 317.63C16.0001 314.593 14.7409 311.556 13.5557 308.519L15.7779 307.704C16.889 310.667 18.1483 313.704 19.5557 316.667L17.4075 317.63ZM10.0001 299.185C9.03716 296 8.22235 292.815 7.48161 289.63L10.1483 288.889C10.889 292 11.7038 295.185 12.6668 298.296L10.0001 299.185ZM5.70383 279.926C5.25939 276.593 4.96309 273.333 4.81494 270.074H7.11124C7.11124 273.259 7.62976 276.519 8.0742 279.704L5.70383 279.926ZM7.40753 260.296H5.03716C5.03716 257.037 5.55568 253.704 6.00013 250.444L8.3705 250.815C7.8648 253.954 7.54326 257.12 7.40753 260.296ZM10.2223 241.185L8.00013 240.593C8.79691 237.4 9.78638 234.258 10.9631 231.185L13.1853 232C12.0343 234.999 11.0695 238.067 10.2964 241.185H10.2223ZM17.0372 223.185L14.8149 222.222C16.2964 219.333 18.0001 216.444 19.7779 213.63L22.2223 214.815C20.3593 217.504 18.6528 220.299 17.1112 223.185H17.0372ZM233.111 212C229.852 212 226.519 212 223.185 211.333V208.963C226.377 209.401 229.594 209.624 232.815 209.63L233.111 212ZM243.037 211.407V209.037C246.133 208.711 249.203 208.167 252.222 207.407L252.815 209.704C249.617 210.463 246.377 211.032 243.111 211.407H243.037ZM213.408 209.556C210.296 208.815 207.111 207.926 203.926 206.889L204.667 204.667C207.749 205.755 210.89 206.67 214.074 207.407L213.408 209.556ZM27.7038 207.407L25.852 205.926C28.0001 203.407 30.2223 200.889 32.5927 198.519L34.2223 200.222C31.9133 202.49 29.7368 204.889 27.7038 207.407ZM262.222 206.519L261.259 204.37C264.189 203.041 267.034 201.532 269.778 199.852L271.037 201.852C268.208 203.498 265.262 204.934 262.222 206.148V206.519ZM402.963 204.37L402 202.222C404.963 200.889 407.852 199.407 410.667 197.852L411.852 199.852C408.815 201.111 405.852 202.667 402.815 204L402.963 204.37ZM194.889 203.778C191.926 202.519 188.889 201.111 185.926 199.63L186.963 197.482C189.926 199.037 192.889 200.37 195.778 201.63L194.889 203.778ZM279.185 196L277.704 194.222C280.186 192.175 282.513 189.946 284.667 187.556L286.445 189.185C284.113 191.486 281.639 193.638 279.037 195.63L279.185 196ZM177.259 194.889C175.037 193.63 172.815 192.296 170.593 190.815L168.889 189.778L170.37 187.407L172.074 188.519L178.667 192.519L177.259 194.889ZM420.148 194.519L418.667 192.593C421.261 190.753 423.736 188.749 426.074 186.593L427.63 188.37C425.189 190.428 422.642 192.357 420 194.148L420.148 194.519ZM41.4816 193.556L40.0001 191.704C42.5817 189.629 45.2773 187.7 48.0742 185.926L49.3335 187.852C46.5927 189.63 44.0001 191.556 41.4816 193.556ZM160 184.667C157.111 183.111 154.148 181.778 151.259 180.519L152.148 178.37C155.111 179.63 158.148 181.037 161.111 182.519L160 184.667ZM57.7038 183.037L56.6668 180.963C59.584 179.455 62.5755 178.095 65.6298 176.889L66.5186 179.037C63.5557 180.222 60.5927 181.556 57.7038 183.037ZM292.593 181.185L290.667 179.778C292.691 177.192 294.57 174.497 296.296 171.704L298.37 172.889C296.296 175.778 294.519 178.519 292.593 181.185ZM434.815 181.185L433.037 179.556C435.176 177.202 437.179 174.729 439.037 172.148L440.963 173.482C439.074 176.127 437.021 178.65 434.815 181.037V181.185ZM142.445 177.259C139.408 176.296 136.222 175.407 133.111 174.667L133.63 172.37C136.815 173.111 140.074 174 143.185 175.037L142.445 177.259ZM75.7779 176L75.1112 173.778C78.2734 172.805 81.4885 172.014 84.7409 171.407L85.1853 173.704C81.9261 174.148 78.7409 174.963 75.6298 175.852L75.7779 176ZM123.778 172.815C120.593 172.296 117.333 172 114.148 171.778V169.407C117.408 169.407 120.667 170 123.926 170.444L123.778 172.815ZM94.7409 172.222V169.852C98.0001 169.482 101.333 169.259 104.593 169.185V171.556C101.037 171.482 97.852 171.704 94.5927 172.074L94.7409 172.222ZM446.222 164.815L444.148 163.704C445.651 160.856 446.963 157.911 448.074 154.889L450.296 155.704C449.071 158.798 447.661 161.815 446.074 164.741L446.222 164.815ZM302.667 164.148L300.37 162.963C301.704 160.074 302.963 157.037 304.074 154L306.222 154.741C305.111 158.074 303.704 161.111 302.519 164.074L302.667 164.148ZM453.111 146.222L450.815 145.63C451.581 142.508 452.15 139.341 452.519 136.148H454.889C454.449 139.517 453.806 142.857 452.963 146.148L453.111 146.222ZM309.333 145.556L307.037 144.963C307.852 141.852 308.593 138.667 309.185 135.482L311.556 135.926C311.111 139.111 310 142.296 309.185 145.481L309.333 145.556ZM455.556 126.593H453.185C453.222 125.902 453.222 125.209 453.185 124.519C453.185 122 453.185 119.482 453.185 117.111H455.556C455.556 119.704 455.556 122.37 455.556 124.519C455.482 125.037 455.408 125.926 455.408 126.519L455.556 126.593ZM312.815 125.926H310.519C310.519 122.741 311.111 119.481 311.259 116.296H313.63C313.482 119.481 313.185 122.815 312.815 125.926ZM451.852 107.111C451.408 104 450.815 100.815 450.074 97.5556L452.37 97.1111C453.111 100.37 453.704 103.63 454.148 106.815L451.852 107.111ZM311.111 106.37C311.111 103.185 311.111 99.9259 310.593 96.7408H312.889C312.889 100 313.408 103.333 313.482 106.593L311.111 106.37ZM447.333 88.2222C446.315 85.1952 445.128 82.2276 443.778 79.3334L445.852 78.2963C447.283 81.2751 448.52 84.3432 449.556 87.4815L447.333 88.2222ZM312.593 86.8889H310.222C310.299 83.5457 310.721 80.2194 311.482 76.963L313.778 77.4815C313.049 80.5661 312.651 83.7198 312.593 86.8889ZM439.259 70.8889C437.493 68.2993 435.563 65.8251 433.482 63.4815L435.259 61.926C437.44 64.4259 439.445 67.0743 441.259 69.8519L439.259 70.8889ZM316.889 68.4445L314.741 67.4074C316.256 64.5281 318.041 61.7997 320.074 59.2593L321.926 60.7408C319.969 63.116 318.28 65.6995 316.889 68.4445ZM426.593 56.5185C424.279 54.4011 421.802 52.4691 419.185 50.7408L420.519 48.7408C423.282 50.5481 425.929 52.5273 428.445 54.6667L426.593 56.5185ZM328.519 53.4815L326.963 51.8519C329.487 49.7018 332.188 47.769 335.037 46.0741L336.296 48.0741C333.553 49.6491 330.951 51.4583 328.519 53.4815ZM410.519 46.0741C407.6 44.6992 404.608 43.4875 401.556 42.4445L402.37 40.2223C405.504 41.2708 408.571 42.5076 411.556 43.926L410.519 46.0741ZM344.889 43.6297L344 41.4815C347.05 40.2015 350.196 39.1613 353.408 38.3704L354 40.5926C350.911 41.4132 347.87 42.4024 344.889 43.5556V43.6297ZM392.296 39.926C389.143 39.2461 385.952 38.7514 382.741 38.4445V36.0741C386.051 36.3728 389.341 36.8675 392.593 37.5556L392.296 39.926ZM363.482 38.8148V36.4445C366.749 36.0136 370.038 35.7663 373.333 35.7037V38.0741C370.039 38.1005 366.749 38.3231 363.482 38.7408V38.8148Z" fill="#C0BDFF"/>
<path d="M388.593 209.185L388 206.889C389.555 206.531 391.088 206.085 392.593 205.556L393.333 207.778C391.786 208.352 390.202 208.822 388.593 209.185Z" fill="#C0BDFF"/>
<path d="M476.297 316.296C473.63 321.556 453.63 333.926 455.482 347.185C456.667 355.556 465.334 356.148 467.778 364.889C471.704 379.259 455.037 402.519 438.815 403.926C419.482 405.482 401.334 376 394.371 355.037C391.185 345.482 390.445 337.63 393.111 335.482C398.741 330.667 421.556 351.259 429.334 350.296C429.953 350.272 430.538 350.006 430.963 349.556C435.185 345.333 418.815 330.148 416.815 304.296C416.297 297.407 414.297 272.445 429.63 263.926C444.963 255.407 467.704 266.296 471.037 278.741C474.371 291.185 456.222 306.889 453.482 314.074C453.482 315.259 453.037 316.222 453.482 316.889C456.667 320.963 474.148 311.259 475.704 314.445C475.868 314.523 476.015 314.634 476.135 314.771C476.255 314.908 476.346 315.069 476.401 315.242C476.457 315.416 476.476 315.599 476.458 315.78C476.44 315.961 476.385 316.137 476.297 316.296Z" fill="#7B6BFF"/>
<path d="M430.74 361.778C418.518 370.37 403.037 370.37 394.592 355.037C391.407 345.481 390.666 337.63 393.333 335.481C398.963 330.667 421.777 351.259 429.555 350.296C442.444 351.481 446.296 350.741 430.74 361.778Z" fill="#6761DB"/>
<path d="M476.297 316.296C473.111 315.481 472.223 314.593 458.593 323.704C444.963 332.815 443.778 330.148 453.704 314.444C453.704 315.63 453.26 316.593 453.704 317.259C456.889 321.333 474.371 311.63 475.926 314.815C476.132 314.994 476.278 315.232 476.344 315.497C476.411 315.762 476.394 316.041 476.297 316.296Z" fill="#6761DB"/>
<path d="M468.963 386.963V391.778C468.974 395.517 468.322 399.229 467.037 402.741C465.386 407.299 462.727 411.426 459.259 414.815C458.747 415.391 458.176 415.912 457.556 416.37C451.647 421.646 443.995 424.548 436.074 424.518H434.741C428.325 424.236 422.135 422.069 416.944 418.288C411.753 414.506 407.792 409.279 405.556 403.259V402.889C405.556 402.889 405.556 402.889 405.556 402.444C404.564 399.604 403.99 396.635 403.852 393.63V387.111L468.963 386.963Z" fill="#03070A"/>
<path d="M435.037 285.407C437.164 285.407 438.889 283.683 438.889 281.555C438.889 279.428 437.164 277.704 435.037 277.704C432.909 277.704 431.185 279.428 431.185 281.555C431.185 283.683 432.909 285.407 435.037 285.407Z" fill="white"/>
<path d="M440.889 301.259C442.321 301.259 443.482 300.099 443.482 298.667C443.482 297.235 442.321 296.074 440.889 296.074C439.457 296.074 438.297 297.235 438.297 298.667C438.297 300.099 439.457 301.259 440.889 301.259Z" fill="white"/>
<path d="M455.556 294.444C456.456 294.444 457.185 293.715 457.185 292.815C457.185 291.915 456.456 291.185 455.556 291.185C454.656 291.185 453.926 291.915 453.926 292.815C453.926 293.715 454.656 294.444 455.556 294.444Z" fill="white"/>
<path d="M430.296 323.63C432.423 323.63 434.148 321.905 434.148 319.778C434.148 317.65 432.423 315.926 430.296 315.926C428.169 315.926 426.444 317.65 426.444 319.778C426.444 321.905 428.169 323.63 430.296 323.63Z" fill="white"/>
<path d="M458.444 375.333C460.572 375.333 462.296 373.609 462.296 371.482C462.296 369.354 460.572 367.63 458.444 367.63C456.317 367.63 454.593 369.354 454.593 371.482C454.593 373.609 456.317 375.333 458.444 375.333Z" fill="white"/>
<path d="M425.482 381.111C427.609 381.111 429.334 379.387 429.334 377.259C429.334 375.132 427.609 373.407 425.482 373.407C423.354 373.407 421.63 375.132 421.63 377.259C421.63 379.387 423.354 381.111 425.482 381.111Z" fill="white"/>
<path d="M438.074 345.111C439.506 345.111 440.667 343.95 440.667 342.519C440.667 341.087 439.506 339.926 438.074 339.926C436.642 339.926 435.482 341.087 435.482 342.519C435.482 343.95 436.642 345.111 438.074 345.111Z" fill="white"/>
<path d="M435.481 370.222C436.913 370.222 438.074 369.061 438.074 367.63C438.074 366.198 436.913 365.037 435.481 365.037C434.049 365.037 432.889 366.198 432.889 367.63C432.889 369.061 434.049 370.222 435.481 370.222Z" fill="white"/>
<path d="M452 356.37C453.064 356.37 453.926 355.508 453.926 354.444C453.926 353.381 453.064 352.518 452 352.518C450.936 352.518 450.074 353.381 450.074 354.444C450.074 355.508 450.936 356.37 452 356.37Z" fill="white"/>
<path d="M456.889 333.185C457.789 333.185 458.518 332.456 458.518 331.556C458.518 330.656 457.789 329.926 456.889 329.926C455.989 329.926 455.259 330.656 455.259 331.556C455.259 332.456 455.989 333.185 456.889 333.185Z" fill="white"/>
<path d="M446.963 380.518C447.863 380.518 448.593 379.789 448.593 378.889C448.593 377.989 447.863 377.259 446.963 377.259C446.063 377.259 445.333 377.989 445.333 378.889C445.333 379.789 446.063 380.518 446.963 380.518Z" fill="white"/>
<path d="M444.445 386.963C439.852 406.296 435.63 415.778 431.704 415.778C429.111 415.778 427.63 411.926 425.926 407.556C424.223 403.185 421.704 397.037 417.482 396.222C413.26 395.407 410.074 397.852 405.926 403.111V402.741C405.926 402.741 405.926 402.741 405.926 402.296C410.445 397.111 414.519 394.889 417.926 395.482C422.519 396.37 424.815 402.222 426.889 407.333C428.445 411.259 429.926 414.741 432 414.741C434.074 414.741 438.519 409.852 444.074 386.667L444.445 386.963Z" fill="white"/>
<path d="M459.26 414.815C458.747 415.391 458.176 415.912 457.556 416.37C464 404.593 463.926 400.741 462.741 399.704C461.556 398.667 456.519 400.593 452.815 402.445C449.111 404.296 446.889 405.407 446.074 404.445C445.26 403.482 446.074 400.519 458.445 387.111H459.482C446.741 400.815 446.222 403.482 446.667 404C447.111 404.519 450.074 403.037 452.445 401.778C456.593 399.704 461.185 397.333 463.185 399.111C465.185 400.889 464.148 405.852 459.26 414.815Z" fill="white"/>
<path d="M189.852 343.778C198.242 337.554 208.76 334.916 219.094 336.444C229.428 337.972 238.733 343.54 244.963 351.926L252.815 362.519C258.687 370.41 261.395 380.211 260.408 389.998C259.422 399.784 254.811 408.848 247.481 415.407L246 416.667C232.957 425.529 217.272 429.66 201.556 428.37C187.447 427.317 173.657 423.65 160.889 417.556C128.603 401.669 100.76 378.026 79.8519 348.741C57.941 320.206 43.4354 286.69 37.6297 251.185C35.4482 237.222 35.9257 222.971 39.0371 209.185C42.3752 193.906 50.8129 180.218 62.963 170.37L64.6667 169.259C73.0271 164.212 82.9662 162.455 92.5502 164.331C102.134 166.207 110.678 171.581 116.519 179.407L124.444 190.074C130.668 198.464 133.306 208.982 131.778 219.316C130.25 229.651 124.682 238.955 116.296 245.185L100.667 256.815C96.3056 260.033 93.1874 264.656 91.8381 269.905C90.4887 275.154 90.9906 280.708 93.2593 285.63C99.367 298.71 106.814 311.122 115.482 322.667C127.839 339.539 142.848 354.298 159.926 366.37L189.852 343.778Z" fill="#130C6D"/>
<path d="M259.765 383.791C266.035 376.235 258.537 359.669 243.017 346.789C227.497 333.908 209.832 329.592 203.562 337.147C197.291 344.702 204.79 361.269 220.31 374.149C235.83 387.029 253.494 391.346 259.765 383.791Z" fill="#C0BDFF"/>
<path d="M132.264 215.315C139.469 208.645 134.203 191.24 120.503 176.439C106.802 161.638 89.8541 155.047 82.6489 161.717C75.4437 168.386 80.7094 185.792 94.4102 200.592C108.111 215.393 125.059 221.984 132.264 215.315Z" fill="#C0BDFF"/>
<path d="M245.037 195.778C265.407 243.333 227.926 263.333 194.296 260C176.667 258.296 160.074 250.148 153.407 236.296C152.108 234.287 151.46 231.925 151.552 229.534C151.644 227.143 152.472 224.838 153.922 222.935C155.372 221.031 157.374 219.621 159.655 218.897C161.935 218.173 164.384 218.17 166.667 218.889C176.738 222.958 187.183 226.034 197.852 228.074C203.065 228.74 208.342 228.74 213.556 228.074C234.593 225.111 208.074 159.778 208.074 159.778C208.074 159.778 216.37 128.963 245.037 195.778Z" fill="#FFDDA1"/>
<path d="M194.815 260.593V260.074C199.716 250.179 200.949 238.867 198.296 228.148V227.778C190.676 226.674 183.215 224.659 176.074 221.778L174.741 221.259C171.555 220.074 168.741 219.037 166.37 218.37C164.027 217.623 161.511 217.618 159.165 218.357C156.819 219.095 154.759 220.541 153.267 222.495C151.775 224.45 150.923 226.818 150.829 229.275C150.735 231.733 151.402 234.159 152.741 236.222C158.17 246.223 167.327 253.677 178.222 256.963L180.444 257.704C185.113 259.196 189.932 260.165 194.815 260.593Z" fill="#99003E"/>
<path d="M258.667 478.889C258.341 479.58 257.867 480.191 257.278 480.677C256.689 481.164 256 481.514 255.259 481.704C243.926 485.63 184.074 466.889 185.333 454.148C185.333 454.148 185.333 453.481 185.333 453.185C185.291 452.766 185.291 452.345 185.333 451.926C185.477 451.14 185.7 450.37 186 449.63C186 449.63 186 449.037 186 448.667L186.444 447.63C191.287 439.013 197.548 431.275 204.963 424.741L222.222 443.111C221.195 446.186 220.767 449.43 220.963 452.667C220.982 454.101 221.305 455.514 221.91 456.814C222.515 458.114 223.389 459.272 224.473 460.21C225.558 461.147 226.83 461.845 228.204 462.255C229.577 462.666 231.023 462.781 232.444 462.593C241.428 462.774 250.018 466.316 256.519 472.518L257.111 473.185C258.26 474.399 258.965 475.965 259.111 477.63C259.046 478.074 258.895 478.502 258.667 478.889Z" fill="#99003E"/>
<path d="M256.889 473.185C254.741 475.481 249.481 475.704 240.074 474L234.815 472.889C228.222 471.333 220 469.037 211.555 466.074C202.433 463.466 194.321 458.144 188.296 450.815C187.753 450.134 187.258 449.416 186.815 448.667L187.259 447.63C187.8 448.552 188.393 449.442 189.037 450.296C194.956 457.443 202.915 462.612 211.852 465.111C236.592 473.481 252.741 476.148 256.296 472.518L256.889 473.185Z" fill="white"/>
<path d="M258.667 478.889C253.284 480.541 247.53 480.541 242.148 478.889L236.296 477.63C229.333 476 220.889 473.556 211.555 470.222C201.94 467.536 193.316 462.105 186.741 454.593L185.185 453.185C185.143 452.767 185.143 452.345 185.185 451.926C185.696 452.755 186.266 453.547 186.889 454.296C193.368 461.629 201.833 466.929 211.259 469.556C238 478.222 255.111 481.482 259.259 477.63C259.148 478.085 258.947 478.513 258.667 478.889Z" fill="white"/>
<path opacity="0.15" d="M220.741 452.667L186.445 449.63C191.208 440.154 197.775 431.7 205.778 424.741L222.223 443.111C221.12 446.172 220.617 449.416 220.741 452.667Z" fill="#03070A"/>
<path d="M327.111 388.889C326.935 389.623 326.606 390.312 326.147 390.912C325.688 391.512 325.108 392.008 324.445 392.37C314.223 398.741 251.704 394 250.371 381.407C250.334 381.063 250.334 380.715 250.371 380.37C250.331 379.952 250.331 379.53 250.371 379.111C250.371 378.296 250.371 377.556 250.371 376.741C250.33 376.421 250.33 376.097 250.371 375.778V374.593C253.136 365.097 257.522 356.15 263.334 348.148L283.26 362.296C282.951 365.538 283.278 368.809 284.223 371.926C284.557 373.328 285.189 374.642 286.075 375.779C286.962 376.916 288.082 377.85 289.36 378.517C290.638 379.184 292.044 379.569 293.483 379.646C294.923 379.723 296.362 379.49 297.704 378.963C306.475 377.146 315.609 378.651 323.334 383.185L324.074 383.704C325.438 384.649 326.473 385.995 327.037 387.556C327.135 387.993 327.16 388.443 327.111 388.889Z" fill="#99003E"/>
<path d="M324.074 383.704C322.519 386.37 317.259 387.926 307.926 388.296H302.519C294.426 388.239 286.341 387.769 278.296 386.889C268.759 386.618 259.532 383.439 251.852 377.778L250 376.074V374.889C250.711 375.684 251.479 376.426 252.296 377.111C259.67 382.744 268.583 386 277.852 386.444C303.852 388.963 320.222 387.926 322.741 383.555L324.074 383.704Z" fill="white"/>
<path d="M327.111 388.889C322.25 391.649 316.691 392.936 311.111 392.593H305.185C297.778 392.593 289.185 392.148 279.407 391.185C269.497 390.761 259.924 387.467 251.852 381.704L250.296 380.37C250.257 379.951 250.257 379.53 250.296 379.111L252.518 381.037C260.489 386.707 269.931 389.949 279.704 390.37C307.185 392.889 324.148 391.852 327.407 387.555C327.384 388.013 327.284 388.464 327.111 388.889Z" fill="white"/>
<path opacity="0.15" d="M284.222 371.926L250.148 376.741C252.626 366.438 257.106 356.722 263.333 348.148L283.259 362.296C282.951 365.538 283.278 368.809 284.222 371.926Z" fill="#03070A"/>
<path d="M292.074 364.593C279.704 377.185 267.037 381.185 253.926 370.889L253.037 370.37C251.306 368.977 249.696 367.441 248.222 365.778C237.334 347.778 258 340.37 218.593 313.111C217.111 316.296 215.556 319.259 214.074 322.074L213.26 323.555C196.593 353.185 178.445 360.593 154 364.889L131.778 350.074L129.037 348.148C136.445 336.37 142.815 325.481 149.556 315.852L150.223 314.889C170.297 286.518 191.334 268.963 226.445 271.037C240.438 274.184 253.268 281.19 263.482 291.259L264.371 292.074C287.63 312.889 306.445 344.518 292.074 364.593Z" fill="#7B6BFF"/>
<path d="M264.37 292.074C258.501 297.049 251.164 299.963 243.481 300.37C235.696 300.229 228.153 297.637 221.926 292.963C219.184 290.628 216 288.867 212.565 287.785C209.129 286.704 205.511 286.323 201.926 286.667C191.259 288.519 184.74 298.222 179.037 306.815C173.333 315.407 168.74 322.296 161.185 322.296H160.814C158.623 322.074 156.497 321.416 154.564 320.36C152.63 319.304 150.927 317.872 149.555 316.148L150.222 315.185C151.506 316.844 153.113 318.225 154.947 319.243C156.78 320.262 158.802 320.898 160.889 321.111C168.296 321.111 172.666 314.296 178.074 306.296C183.481 298.296 190.518 287.556 201.703 285.63C205.439 285.261 209.21 285.641 212.797 286.747C216.384 287.854 219.714 289.665 222.592 292.074C228.588 296.706 235.907 299.301 243.481 299.482C250.833 299.09 257.856 296.307 263.481 291.556L264.37 292.074Z" fill="white"/>
<path d="M253.926 370.889L253.037 370.37C269.704 355.555 276.815 344.296 274 337.481C272.518 333.704 268.518 332.444 261.852 330.074C252.069 327.243 242.723 323.081 234.074 317.704C229.529 314.845 225.152 311.729 220.963 308.37C216.518 304.889 213.555 302.815 212.296 303.704C211.037 304.593 210 308.889 213.778 321.778L212.963 323.259C208.148 307.407 209.778 303.852 211.704 302.667C213.63 301.481 216.667 303.481 221.704 307.407C225.864 310.736 230.191 313.851 234.667 316.741C243.248 322.058 252.52 326.171 262.222 328.963C268.963 331.037 273.407 332.444 275.111 336.741C278.074 344.148 271.185 355.555 253.926 370.889Z" fill="white"/>
<path opacity="0.15" d="M140.074 323.778L153.778 364.593C180.741 360.148 200.148 351.185 218.296 312.741L140.074 323.778Z" fill="#03070A"/>
<path d="M216.815 446.222C213.238 446.224 209.668 445.902 206.148 445.259L202.963 444.444C191.111 440.963 184.519 432.148 185.556 415.407C188.963 402.222 198.445 401.63 202.445 389.926C202.612 389.52 202.736 389.098 202.815 388.667C204.719 380.142 204.845 371.316 203.186 362.741C203.15 362.075 203.15 361.407 203.186 360.741C203.186 359.63 202.815 358.444 202.593 357.259C162.445 371.037 146.148 364.074 135.926 359.704C131.199 357.699 127.166 354.348 124.331 350.067C121.496 345.785 119.984 340.764 119.984 335.63C119.984 330.495 121.496 325.474 124.331 321.193C127.166 316.911 131.199 313.56 135.926 311.556C138.963 310.963 141.926 310.37 144.889 309.926H146.593C176.963 305.111 204.741 307.259 232.593 339.556L233.63 340.889L234.297 341.926C242.263 356.451 246.393 372.768 246.297 389.333C246.297 389.852 246.297 390.37 246.297 390.889C246.297 416.815 238.223 442.889 216.815 446.222Z" fill="#7B6BFF"/>
<path d="M203.185 362.963C203.149 362.297 203.149 361.629 203.185 360.963C205.141 357.529 205.847 353.525 205.185 349.63C203.037 339.333 189.185 335.333 184 333.852C171.007 330.793 157.4 331.644 144.889 336.296C138 338.296 133.408 339.63 131.408 337.037C129.408 334.444 130.519 331.63 133.259 326.518C136.632 320.739 140.498 315.262 144.815 310.148H146.519C131.704 328 130.593 334.444 132.296 336.593C134 338.741 138.37 337.259 144.593 335.481C157.317 330.743 171.162 329.893 184.37 333.037C189.704 334.518 204 338.667 206.593 349.63C207.159 354.343 205.944 359.099 203.185 362.963Z" fill="white"/>
<path d="M246 390.444C230 405.259 223.778 408.963 221.629 408.963C221.204 408.979 220.785 408.849 220.444 408.592C218.37 406.889 221.481 400.592 227.037 389.704C233.259 377.555 241.037 362.37 236.666 358.222C234.592 356.296 230.518 357.259 226.889 358.222C223.259 359.185 220.741 359.63 219.481 358.222C218.222 356.815 219.037 353.259 232.963 340.889L233.629 341.926C220.37 353.63 220 356.741 220.444 357.63C220.889 358.518 223.704 357.63 226.37 357.63C230.222 356.815 234.666 355.778 237.185 358.074C242.222 362.889 234.592 377.778 227.778 390.963C225.555 395.407 223.333 399.63 222.074 402.815C220.222 407.185 220.666 408.148 220.889 408.37C221.111 408.592 222.815 409.037 229.852 403.555C233.852 400.37 239.185 395.704 245.629 389.63C245.926 389.407 246 389.926 246 390.444Z" fill="white"/>
<path d="M206.148 445.259L202.963 444.444C197.298 440.788 193.224 435.126 191.556 428.593C189.334 417.778 196.371 407.407 201.482 399.852C204.445 395.481 206.963 391.778 205.852 390.37C204.741 388.963 204.593 389.556 202.445 389.926C202.612 389.52 202.736 389.098 202.815 388.667C205.185 388.667 206.222 388.667 206.815 389.63C208.445 391.704 205.926 395.407 202.445 400.518C197.482 407.926 190.593 418.074 192.667 428.37C193.676 431.942 195.388 435.275 197.703 438.176C200.018 441.076 202.889 443.484 206.148 445.259Z" fill="white"/>
<path d="M113.26 310.296C113.295 310.715 113.295 311.137 113.26 311.556C114.667 321.778 117.111 329.333 120.667 331.556C123.862 333.636 127.474 334.992 131.249 335.53C135.023 336.067 138.87 335.773 142.519 334.667C150.868 331.513 158.159 326.071 163.556 318.963C163.866 318.677 164.14 318.354 164.371 318C169.324 312.167 173.807 305.95 177.778 299.407C181.724 291.588 183.098 282.721 181.704 274.074C181.668 273.63 181.668 273.185 181.704 272.741C179.438 259.24 175.942 245.975 171.26 233.111C169.704 228.296 168.667 222.296 165.26 220C157.852 214.963 124.223 220.593 120.815 224.963C117.783 237.318 115.434 249.831 113.778 262.445C111.935 278.333 111.761 294.371 113.26 310.296Z" fill="#99003E"/>
<path opacity="0.15" d="M113.259 310.296C113.295 310.715 113.295 311.137 113.259 311.556C114.666 321.778 117.111 329.333 120.667 331.556C123.862 333.636 127.473 334.992 131.248 335.53C135.023 336.067 138.869 335.773 142.518 334.667L138.963 252.445L113.333 262.148C111.617 278.15 111.592 294.289 113.259 310.296Z" fill="#03070A"/>
<path d="M137.037 217.926C145.852 211.63 128.889 196.148 137.926 187.482C140.22 185.265 143.124 183.784 146.265 183.23C149.407 182.675 152.642 183.073 155.556 184.37C164.445 189.259 161.482 206.593 158 208.074C154.519 209.556 151.26 206.074 151.26 206.074C150.746 207.499 150.495 209.004 150.519 210.519C150.519 212.963 150.519 214.074 154.223 215.037C170.371 236.593 150 240.519 137.037 217.926Z" fill="#FFDDA1"/>
<path opacity="0.15" d="M150.37 210.518C148.706 208.061 147.268 205.458 146.074 202.741L151.111 206.074C150.597 207.499 150.346 209.004 150.37 210.518Z" fill="#03070A"/>
<path d="M151.926 190.815C161.185 195.482 182.445 185.111 172.963 170.889C155.556 144.741 123.334 167.63 126.889 188.444C132.445 221.185 151.926 190.815 151.926 190.815Z" fill="#03070A"/>
<path d="M341.111 133.333V189.63C341.111 206.368 334.462 222.42 322.627 234.256C310.791 246.092 294.738 252.741 278 252.741H223.334L187.704 285.407L178.148 294.148V196.37C178.148 179.652 184.79 163.618 196.612 151.796C208.433 139.975 224.467 133.333 241.186 133.333H341.111Z" fill="#CD3F52"/>
<path d="M287.037 206.889V204.37C286.899 201.799 287.463 199.239 288.666 196.963C290.07 194.634 291.936 192.618 294.148 191.037C296.408 189.374 298.448 187.433 300.222 185.259C301.127 183.792 301.59 182.094 301.555 180.37C301.614 179.404 301.443 178.437 301.057 177.549C300.67 176.66 300.08 175.876 299.333 175.259C297.503 173.956 295.278 173.327 293.037 173.481C290.67 173.459 288.316 173.835 286.074 174.593C283.941 175.278 281.861 176.12 279.852 177.111L276.518 170.37C281.746 167.371 287.676 165.812 293.703 165.852C298.098 165.613 302.433 166.953 305.926 169.63C307.439 170.92 308.638 172.537 309.434 174.36C310.23 176.182 310.6 178.161 310.518 180.148C310.543 181.941 310.241 183.723 309.629 185.407C308.978 186.98 308.105 188.452 307.037 189.778C305.164 191.767 303.133 193.6 300.963 195.259C299.193 196.613 297.622 198.209 296.296 200C295.42 201.555 295.009 203.329 295.111 205.111V206.889H287.037ZM285.481 219.407C285.36 218.614 285.425 217.804 285.67 217.04C285.915 216.277 286.334 215.58 286.895 215.006C287.455 214.431 288.14 213.995 288.897 213.73C289.655 213.466 290.463 213.381 291.259 213.481C292.044 213.426 292.832 213.536 293.572 213.804C294.312 214.072 294.988 214.492 295.555 215.037C296.095 215.623 296.511 216.313 296.778 217.064C297.046 217.815 297.159 218.612 297.111 219.407C297.165 220.215 297.055 221.025 296.787 221.789C296.52 222.552 296.101 223.254 295.555 223.852C294.997 224.414 294.325 224.851 293.583 225.132C292.842 225.413 292.05 225.532 291.259 225.482C290.474 225.537 289.686 225.427 288.946 225.159C288.206 224.891 287.53 224.471 286.963 223.926C286.428 223.309 286.022 222.591 285.767 221.816C285.513 221.04 285.416 220.221 285.481 219.407Z" fill="white"/>
<path d="M252.593 171.852H204.518C201.982 171.852 199.926 173.908 199.926 176.445V176.519C199.926 179.055 201.982 181.111 204.518 181.111H252.593C255.129 181.111 257.185 179.055 257.185 176.519V176.445C257.185 173.908 255.129 171.852 252.593 171.852Z" fill="white"/>
<path d="M231.778 197.63H204.518C201.982 197.63 199.926 199.686 199.926 202.222V202.296C199.926 204.833 201.982 206.889 204.518 206.889H231.778C234.314 206.889 236.37 204.833 236.37 202.296V202.222C236.37 199.686 234.314 197.63 231.778 197.63Z" fill="white"/>
<path opacity="0.1" d="M341.111 133.333V189.63C341.111 206.368 334.462 222.42 322.626 234.256C310.791 246.092 294.738 252.741 278 252.741H223.333L341.111 133.333Z" fill="black"/>
<path d="M199.408 273.185C200.889 262.963 209.778 257.407 209.185 262.963C208.593 268.518 214.371 259.037 217.111 257.481C219.852 255.926 217.482 274.667 206.741 283.926C196 293.185 199.408 273.185 199.408 273.185Z" fill="#FFDDA1"/>
<path d="M166.889 313.333C121.407 338.074 98.074 302.667 98.2221 268.889C98.2221 251.185 104.815 233.926 118.074 225.926C119.958 224.457 122.249 223.603 124.635 223.482C127.022 223.361 129.387 223.977 131.411 225.248C133.434 226.519 135.017 228.382 135.944 230.584C136.871 232.786 137.098 235.22 136.592 237.556C133.517 247.952 131.434 258.617 130.37 269.407C130.177 274.688 130.701 279.971 131.926 285.111C136.815 305.778 199.407 273.259 199.407 273.259C199.407 273.259 230.741 278.593 166.889 313.333Z" fill="#FFDDA1"/>
<path d="M97.7039 269.407H98.2225C108.549 273.332 119.923 273.516 130.371 269.926C130.795 262.219 132.113 254.588 134.297 247.185C134.297 246.741 134.297 246.296 134.297 245.852C135.363 242.963 136.278 240.021 137.037 237.037C137.574 234.642 137.354 232.139 136.408 229.875C135.462 227.61 133.835 225.695 131.754 224.394C129.673 223.093 127.239 222.471 124.788 222.612C122.338 222.754 119.992 223.653 118.074 225.185C113.378 228.299 109.344 232.31 106.204 236.988C103.065 241.666 100.88 246.919 99.778 252.444C99.778 253.185 99.4076 254 99.2595 254.741C98.2031 259.557 97.6814 264.476 97.7039 269.407Z" fill="#99003E"/>
<path d="M443.482 197.556L360.296 221.111L405.333 181.259L412.222 188.296L417.556 193.704L421.037 194.222L443.482 197.556Z" fill="#C0BDFF"/>
<path d="M421.037 194.222L360.296 221.111L412.222 188.296L417.556 193.704L421.037 194.222Z" fill="#130C6D"/>
<path d="M280.148 65.5556H278.222C277.709 63.574 276.911 61.6776 275.852 59.9259L277.259 58.4445C277.591 58.1141 277.854 57.7216 278.033 57.2894C278.213 56.8573 278.305 56.3939 278.305 55.9259C278.305 55.458 278.213 54.9946 278.033 54.5624C277.854 54.1303 277.591 53.7377 277.259 53.4074L274.741 50.8889C274.061 50.2149 273.142 49.8367 272.185 49.8367C271.228 49.8367 270.309 50.2149 269.63 50.8889L268.222 52.2963C266.47 51.2374 264.574 50.439 262.593 49.9259V47.9259C262.559 47.0383 262.202 46.1937 261.587 45.552C260.973 44.9104 260.145 44.5163 259.259 44.4445H255.63C254.693 44.4634 253.799 44.8441 253.136 45.5068C252.474 46.1695 252.093 47.063 252.074 48V50C250.092 50.513 248.196 51.3115 246.444 52.3704L245.037 50.963C244.357 50.289 243.439 49.9108 242.481 49.9108C241.524 49.9108 240.606 50.289 239.926 50.963L237.037 53.4074C236.706 53.7377 236.443 54.1303 236.263 54.5624C236.084 54.9946 235.991 55.458 235.991 55.9259C235.991 56.3939 236.084 56.8573 236.263 57.2894C236.443 57.7216 236.706 58.1141 237.037 58.4445L238.444 59.9259C237.409 61.6805 236.635 63.5771 236.148 65.5556H234.148C233.675 65.5457 233.205 65.6304 232.765 65.8047C232.325 65.9789 231.924 66.2393 231.586 66.5704C231.248 66.9016 230.979 67.2969 230.796 67.7331C230.613 68.1694 230.518 68.6379 230.518 69.1111V72.6667C230.518 73.6293 230.901 74.5525 231.582 75.2332C232.262 75.9139 233.185 76.2963 234.148 76.2963H236.148C236.635 78.2748 237.409 80.1714 238.444 81.9259L237.037 83.3333C236.363 84.0131 235.985 84.9316 235.985 85.8889C235.985 86.8462 236.363 87.7647 237.037 88.4445L239.556 90.963C240.235 91.637 241.154 92.0151 242.111 92.0151C243.068 92.0151 243.987 91.637 244.667 90.963L246.074 89.5556C247.829 90.5915 249.725 91.3651 251.704 91.8519V93.8519C251.703 94.8018 252.076 95.714 252.74 96.3926C253.405 97.0712 254.309 97.4621 255.259 97.4815H259.259C260.209 97.4621 261.113 97.0712 261.778 96.3926C262.443 95.714 262.815 94.8018 262.815 93.8519V91.8519C264.793 91.3651 266.69 90.5915 268.444 89.5556L269.852 90.963C270.532 91.637 271.45 92.0151 272.407 92.0151C273.365 92.0151 274.283 91.637 274.963 90.963L277.481 88.4445C278.155 87.7647 278.534 86.8462 278.534 85.8889C278.534 84.9316 278.155 84.0131 277.481 83.3333L276.074 81.9259C277.133 80.1742 277.931 78.2778 278.444 76.2963H280.37C280.847 76.2963 281.319 76.2024 281.759 76.02C282.2 75.8376 282.6 75.5703 282.937 75.2332C283.274 74.8962 283.541 74.496 283.724 74.0557C283.906 73.6153 284 73.1433 284 72.6667V69.1111C284.002 68.6182 283.901 68.1303 283.704 67.6784C283.507 67.2265 283.218 66.8205 282.856 66.4861C282.494 66.1518 282.066 65.8964 281.6 65.7362C281.134 65.576 280.639 65.5145 280.148 65.5556ZM257.259 82.5185C254.956 82.5332 252.7 81.8636 250.778 80.5947C248.856 79.3258 247.354 77.5146 246.462 75.3909C245.571 73.2672 245.33 70.9266 245.77 68.6658C246.21 66.405 247.312 64.3259 248.936 62.6921C250.559 61.0582 252.631 59.9432 254.889 59.4885C257.147 59.0337 259.489 59.2596 261.618 60.1376C263.748 61.0156 265.568 62.5061 266.85 64.4202C268.131 66.3342 268.815 68.5856 268.815 70.8889C268.815 73.9605 267.6 76.9073 265.435 79.0862C263.27 81.2651 260.331 82.499 257.259 82.5185Z" fill="#C0BDFF"/>
<path d="M353.926 13.8519H352.666C352.302 12.5581 351.78 11.3142 351.111 10.1481L352 9.25926C352.226 9.04469 352.406 8.78625 352.53 8.4997C352.653 8.21316 352.716 7.90451 352.716 7.59259C352.716 7.28068 352.653 6.97203 352.53 6.68548C352.406 6.39893 352.226 6.14049 352 5.92593L350.37 4.2963C350.156 4.06991 349.897 3.8896 349.611 3.76638C349.324 3.64317 349.015 3.57962 348.704 3.57962C348.392 3.57962 348.083 3.64317 347.796 3.76638C347.51 3.8896 347.251 4.06991 347.037 4.2963L346.148 5.18519C344.982 4.51658 343.738 3.99413 342.444 3.62963V2.37037C342.444 1.74171 342.195 1.1388 341.75 0.694266C341.305 0.249735 340.703 3.11005e-07 340.074 3.11005e-07H337.704C337.396 -0.000159924 337.091 0.0615985 336.807 0.181603C336.524 0.301607 336.267 0.477406 336.053 0.698544C335.839 0.919683 335.671 1.18165 335.56 1.46885C335.449 1.75606 335.397 2.06264 335.407 2.37037V3.62963C334.108 3.97759 332.862 4.50092 331.704 5.18519L330.741 4.2963C330.533 4.07192 330.28 3.89291 330 3.7705C329.72 3.64808 329.417 3.5849 329.111 3.5849C328.805 3.5849 328.502 3.64808 328.222 3.7705C327.941 3.89291 327.689 4.07192 327.481 4.2963L325.926 5.92593C325.504 6.37843 325.269 6.97401 325.269 7.59259C325.269 8.21117 325.504 8.80675 325.926 9.25926L326.889 10.1481C326.22 11.3142 325.698 12.5581 325.333 13.8519H324C323.692 13.8517 323.387 13.9135 323.104 14.0335C322.82 14.1535 322.564 14.3293 322.349 14.5504C322.135 14.7715 321.968 15.0335 321.857 15.3207C321.746 15.6079 321.694 15.9145 321.704 16.2222V18.5185C321.694 18.8262 321.746 19.1328 321.857 19.42C321.968 19.7072 322.135 19.9692 322.349 20.1903C322.564 20.4115 322.82 20.5873 323.104 20.7073C323.387 20.8273 323.692 20.889 324 20.8889H325.333C325.681 22.1884 326.204 23.4344 326.889 24.5926L325.926 25.5556C325.711 25.769 325.54 26.0229 325.424 26.3026C325.307 26.5823 325.247 26.8822 325.247 27.1852C325.247 27.4881 325.307 27.7881 325.424 28.0678C325.54 28.3475 325.711 28.6014 325.926 28.8148L327.629 30.5185C327.843 30.7335 328.097 30.9042 328.376 31.0206C328.656 31.1371 328.956 31.197 329.259 31.197C329.562 31.197 329.862 31.1371 330.142 31.0206C330.421 30.9042 330.675 30.7335 330.889 30.5185L331.704 29.6296C332.862 30.3139 334.108 30.8372 335.407 31.1852V32.5185C335.407 33.1275 335.649 33.7116 336.08 34.1423C336.51 34.5729 337.095 34.8148 337.704 34.8148H340.074C340.382 34.8247 340.688 34.7727 340.975 34.6618C341.263 34.5508 341.525 34.3832 341.746 34.169C341.967 33.9548 342.143 33.6983 342.263 33.4147C342.383 33.1312 342.444 32.8264 342.444 32.5185V31.1111C343.738 30.7466 344.982 30.2242 346.148 29.5556L347.037 30.5185C347.489 30.9403 348.085 31.1748 348.704 31.1748C349.322 31.1748 349.918 30.9403 350.37 30.5185L352 28.8148C352.224 28.6068 352.403 28.3547 352.526 28.0743C352.648 27.7938 352.711 27.4912 352.711 27.1852C352.711 26.8792 352.648 26.5765 352.526 26.2961C352.403 26.0157 352.224 25.7636 352 25.5556L351.111 24.5926C351.795 23.4344 352.319 22.1884 352.666 20.8889H353.926C354.554 20.8889 355.157 20.6392 355.602 20.1946C356.046 19.7501 356.296 19.1472 356.296 18.5185V16.2222C356.296 15.5936 356.046 14.9906 355.602 14.5461C355.157 14.1016 354.554 13.8519 353.926 13.8519ZM339.111 24.963C337.646 24.963 336.214 24.5285 334.996 23.7146C333.777 22.9007 332.828 21.7438 332.267 20.3902C331.707 19.0367 331.56 17.5473 331.846 16.1104C332.132 14.6735 332.837 13.3537 333.873 12.3177C334.909 11.2818 336.229 10.5763 337.666 10.2905C339.103 10.0047 340.592 10.1514 341.946 10.712C343.299 11.2727 344.456 12.2221 345.27 13.4402C346.084 14.6584 346.518 16.0905 346.518 17.5556C346.519 18.5473 346.32 19.529 345.934 20.4425C345.548 21.356 344.982 22.1827 344.271 22.8735C343.559 23.5644 342.716 24.1053 341.792 24.4642C340.867 24.8231 339.88 24.9927 338.889 24.963H339.111Z" fill="#C0BDFF"/>
<path d="M375.186 74.0741H374.074C373.752 72.9416 373.305 71.8484 372.741 70.8149L373.482 70.0741C373.677 69.8875 373.832 69.6632 373.938 69.415C374.044 69.1667 374.098 68.8996 374.098 68.6297C374.098 68.3598 374.044 68.0927 373.938 67.8444C373.832 67.5962 373.677 67.3719 373.482 67.1853L372.074 65.7038C371.888 65.5088 371.663 65.3537 371.415 65.2477C371.167 65.1417 370.9 65.0871 370.63 65.0871C370.36 65.0871 370.093 65.1417 369.845 65.2477C369.596 65.3537 369.372 65.5088 369.185 65.7038L368.371 66.6667C367.378 66.072 366.306 65.6229 365.185 65.3334V63.8519C365.186 63.5666 365.128 63.2842 365.015 63.0224C364.901 62.7606 364.735 62.525 364.527 62.3304C364.318 62.1357 364.072 61.9862 363.803 61.8911C363.534 61.796 363.248 61.7575 362.963 61.7779H360.963C360.688 61.7675 360.414 61.814 360.157 61.9145C359.901 62.0151 359.668 62.1675 359.474 62.3622C359.279 62.5569 359.126 62.7897 359.026 63.0461C358.925 63.3024 358.879 63.5768 358.889 63.8519V64.963C357.696 65.3542 356.572 65.929 355.556 66.6667L354.741 65.8519C354.554 65.657 354.33 65.5018 354.082 65.3959C353.834 65.2899 353.567 65.2352 353.297 65.2352C353.027 65.2352 352.76 65.2899 352.511 65.3959C352.263 65.5018 352.039 65.657 351.852 65.8519L350.371 67.3334C350.012 67.7288 349.813 68.2437 349.813 68.7778C349.813 69.312 350.012 69.8269 350.371 70.2223L351.185 70.963C350.591 71.9816 350.142 73.0788 349.852 74.2223H348.741C348.204 74.222 347.687 74.4303 347.3 74.8034C346.913 75.1764 346.686 75.6852 346.667 76.2223V78.2964C346.686 78.8335 346.913 79.3422 347.3 79.7153C347.687 80.0884 348.204 80.2967 348.741 80.2964H349.852C350.142 81.4399 350.591 82.537 351.185 83.5556L350.371 84.3704C350.012 84.7658 349.813 85.2808 349.813 85.8149C349.813 86.349 350.012 86.864 350.371 87.2593L351.852 88.6667C352.039 88.8617 352.263 89.0168 352.511 89.1228C352.76 89.2288 353.027 89.2834 353.297 89.2834C353.567 89.2834 353.834 89.2288 354.082 89.1228C354.33 89.0168 354.554 88.8617 354.741 88.6667L355.556 87.8519C356.548 88.4467 357.621 88.8957 358.741 89.1853V90.3704C358.741 90.6394 358.795 90.9057 358.9 91.1533C359.005 91.4009 359.159 91.6248 359.353 91.8115C359.546 91.9982 359.776 92.144 360.027 92.24C360.278 92.336 360.546 92.3804 360.815 92.3704H362.963C363.501 92.3708 364.017 92.1625 364.404 91.7894C364.791 91.4163 365.018 90.9076 365.037 90.3704V88.889C366.157 88.5994 367.23 88.1504 368.223 87.5556L369.037 88.3704C369.224 88.5654 369.448 88.7205 369.696 88.8265C369.945 88.9325 370.212 88.9871 370.482 88.9871C370.752 88.9871 371.019 88.9325 371.267 88.8265C371.515 88.7205 371.74 88.5654 371.926 88.3704L373.334 86.963C373.529 86.7763 373.684 86.5521 373.79 86.3039C373.896 86.0556 373.95 85.7885 373.95 85.5186C373.95 85.2487 373.896 84.9815 373.79 84.7333C373.684 84.4851 373.529 84.2608 373.334 84.0741L372.593 83.2593C373.157 82.2258 373.604 81.1326 373.926 80.0001H375.037C375.568 80.0001 376.076 79.7894 376.452 79.4143C376.827 79.0392 377.037 78.5305 377.037 78.0001V75.926C377.003 75.4462 376.797 74.9949 376.457 74.6548C376.117 74.3147 375.665 74.1085 375.186 74.0741ZM362.074 83.7038C360.774 83.6892 359.506 83.2901 358.432 82.5569C357.358 81.8237 356.524 80.789 356.037 79.5832C355.549 78.3773 355.429 77.0541 355.692 75.7802C355.954 74.5063 356.588 73.3386 357.513 72.424C358.438 71.5094 359.613 70.8888 360.889 70.6404C362.166 70.3919 363.488 70.5267 364.688 71.0278C365.888 71.5289 366.914 72.3739 367.635 73.4563C368.356 74.5388 368.741 75.8105 368.741 77.1112C368.683 78.8337 367.953 80.4651 366.707 81.6558C365.461 82.8465 363.798 83.5019 362.074 83.4816V83.7038Z" fill="#C0BDFF"/>
</g>
<defs>
<clipPath id="clip0">
<rect width="500" height="482.222" fill="white"/>
</clipPath>
</defs>
</svg>
