<svg width="140" height="144" viewBox="0 0 140 144" fill="none" xmlns="http://www.w3.org/2000/svg">
<g clip-path="url(#clip0)">
<path d="M2.65 53.87C2.5175 54.3821 2.4702 54.9125 2.51 55.44C2.63347 58.0356 3.38727 60.562 4.70622 62.801C6.02517 65.0399 7.86959 66.9238 10.08 68.29L12.19 64.23L12.47 63.69L2.73 54L2.65 53.87Z" fill="#272660"/>
<path d="M15.9999 67.22L15.3799 68.42L12.6799 73.62C13.9491 76.0251 15.7855 78.0846 18.0299 79.62C21.5082 81.9463 25.6056 83.1728 29.7899 83.14H30.7899C31.4344 83.1119 32.0667 82.9555 32.6499 82.68C31.6939 82.498 30.8154 82.0309 30.1299 81.34L15.9999 67.22Z" fill="#272660"/>
<path d="M48.85 77.49C48.2091 77.4904 47.5745 77.3643 46.9825 77.1189C46.3905 76.8735 45.8527 76.5137 45.4 76.06L23.2 53.85H22.92L18.13 63.09L17 65.31L16 67.22L30.1 81.32C30.7855 82.0109 31.664 82.478 32.62 82.66H32.81C32.9933 82.7752 33.1837 82.8787 33.38 82.97V86.03C33.376 88.0581 34.1531 90.0098 35.55 91.48L39.55 95.72C40.1412 96.3531 40.8566 96.8574 41.6515 97.2016C42.4465 97.5457 43.3038 97.7222 44.17 97.72C45.8666 97.72 47.494 97.0475 48.6955 95.8497C49.897 94.6519 50.5747 93.0266 50.58 91.33V83.2C50.6129 81.002 51.0962 78.834 52 76.83C52.1106 76.6052 52.201 76.3709 52.27 76.13C51.4408 76.9323 50.3517 77.4112 49.2 77.48L48.85 77.49ZM32.76 71.09C32.2042 71.09 31.6609 70.9252 31.1988 70.6165C30.7367 70.3077 30.3766 69.8688 30.1639 69.3554C29.9512 68.8419 29.8956 68.2769 30.004 67.7318C30.1124 67.1867 30.38 66.6861 30.773 66.2931C31.166 65.9001 31.6667 65.6325 32.2118 65.524C32.7569 65.4156 33.3219 65.4713 33.8353 65.6839C34.3488 65.8966 34.7877 66.2568 35.0964 66.7189C35.4052 67.181 35.57 67.7243 35.57 68.28C35.57 68.6491 35.4973 69.0145 35.3561 69.3554C35.2149 69.6963 35.0079 70.0061 34.747 70.267C34.486 70.5279 34.1763 70.7349 33.8353 70.8761C33.4944 71.0174 33.129 71.09 32.76 71.09Z" fill="#1E76BA"/>
<path d="M5.41997 32.61C4.99443 33.0572 4.65538 33.5793 4.41997 34.15C3.8693 35.4717 3.53177 36.8725 3.41997 38.3C2.47868 40.0286 1.80438 41.8896 1.41997 43.82C0.899724 46.3569 0.899724 48.973 1.41997 51.51C1.60909 52.3976 2.04197 53.2148 2.66997 53.87L2.74997 53.95L12.49 63.69L13.49 61.78L14.63 59.56L18.73 51.66C17.9223 50.6438 17.4755 49.3879 17.46 48.09L6.67997 37.33C6.0711 36.7251 5.63365 35.9694 5.41229 35.1402C5.19093 34.311 5.19358 33.4379 5.41997 32.61Z" fill="#1E76BA"/>
<path d="M51.88 62C51.6542 63.4481 50.8922 64.7584 49.7452 65.6708C48.5982 66.5832 47.15 67.031 45.6882 66.9252C44.2264 66.8194 42.8578 66.1679 41.8541 65.0999C40.8504 64.0319 40.2849 62.6255 40.27 61.16C40.27 61.16 40.27 61.09 40.27 61.05L31.12 55.55L26.6 52.8C26.2876 53.0219 25.9523 53.2096 25.6 53.36C24.8605 53.69 24.0597 53.8604 23.25 53.86H23.2L45.4 76.06C45.8526 76.5136 46.3904 76.8734 46.9824 77.1188C47.5744 77.3642 48.2091 77.4904 48.8499 77.49H49.15C50.3017 77.4211 51.3907 76.9422 52.22 76.14C52.3895 75.9823 52.5466 75.8118 52.6899 75.63C52.9286 75.3068 53.2233 75.0291 53.56 74.81C55.5676 73.6029 57.1266 71.7737 58 69.6H58.2099C58.6874 69.5961 59.162 69.5254 59.6199 69.39C59.2159 69.1666 58.8456 68.8872 58.52 68.56L51.88 62Z" fill="#02A69C"/>
<path d="M13.6499 19.13C13.2224 19.4375 12.8475 19.8124 12.5399 20.24C10.9142 22.5031 9.81101 25.0989 9.30994 27.84C8.14362 28.7508 7.1044 29.8136 6.21994 31C5.85384 31.496 5.58261 32.0554 5.41994 32.65C5.19355 33.4779 5.1909 34.351 5.41226 35.1802C5.63362 36.0095 6.07107 36.7651 6.67994 37.37L17.4299 48.09V48C17.429 47.1903 17.5975 46.3895 17.9248 45.6489C18.252 44.9083 18.7307 44.2444 19.3299 43.7C20.1642 42.9351 21.203 42.4296 22.3197 42.2451C23.4363 42.0606 24.5825 42.2052 25.6185 42.6611C26.6544 43.117 27.5352 43.8646 28.1534 44.8127C28.7716 45.7607 29.1005 46.8682 29.0999 48C29.0986 48.2375 29.0819 48.4747 29.0499 48.71L42.3199 56.71C43.1699 55.9835 44.2117 55.5182 45.3199 55.37L14.5899 24.69C13.8759 23.9752 13.4018 23.0561 13.2334 22.0599C13.0649 21.0637 13.2105 20.0398 13.6499 19.13Z" fill="#02A69C"/>
<path d="M76.52 64C75.2268 63.9953 73.9874 63.4816 73.07 62.57L56.23 45.76L51.78 55.61L50.78 57.71C50.961 57.96 51.1216 58.2242 51.26 58.5C51.6743 59.3148 51.8902 60.216 51.89 61.13C51.8907 61.4111 51.8706 61.6919 51.83 61.97L58.43 68.57C58.7557 68.8972 59.126 69.1767 59.53 69.4C60.2402 69.7929 61.0384 69.9994 61.85 70H62C62.7716 70.0012 63.5427 69.9612 64.31 69.88C69.93 69.23 74.51 67.44 77.95 64.57C78.3653 64.2206 78.7201 63.805 79 63.34C78.3058 63.7552 77.5183 63.9891 76.71 64.02L76.52 64Z" fill="#8BC441"/>
<path d="M24.88 11.87C24.9728 10.9656 25.3195 10.1058 25.88 9.39001C25.3783 9.61396 24.9184 9.92169 24.52 10.3C23.6918 11.0747 22.9415 11.9288 22.28 12.85C19.5963 13.8082 17.1483 15.3288 15.1 17.31L14.56 17.85C14.1937 18.2238 13.8929 18.6565 13.67 19.13C13.2306 20.0398 13.085 21.0637 13.2534 22.0599C13.4219 23.0561 13.896 23.9753 14.61 24.69L45.27 55.36C45.5482 55.3194 45.8289 55.2994 46.11 55.3H46.68L47.14 54.3L48.14 51.98L52.6 42.13L26.28 15.81C25.7676 15.2993 25.3759 14.6804 25.1336 13.9986C24.8914 13.3169 24.8047 12.5896 24.88 11.87ZM43.62 35.43C44.4255 35.4181 45.2162 35.6461 45.8918 36.0849C46.5673 36.5237 47.097 37.1536 47.4135 37.8943C47.73 38.635 47.819 39.4532 47.6692 40.2447C47.5194 41.0361 47.1375 41.7652 46.5722 42.339C46.0068 42.9128 45.2836 43.3055 44.4944 43.4671C43.7053 43.6286 42.8859 43.5518 42.1405 43.2464C41.3951 42.9409 40.7575 42.4206 40.3086 41.7517C39.8598 41.0828 39.6201 40.2955 39.62 39.49C39.6173 38.4228 40.036 37.3976 40.785 36.6373C41.534 35.8771 42.5529 35.4432 43.62 35.43ZM29.53 31.15C29.528 31.7054 29.3616 32.2476 29.0516 32.7084C28.7416 33.1692 28.3021 33.5278 27.7885 33.739C27.2748 33.9501 26.7101 34.0043 26.1657 33.8948C25.6213 33.7852 25.1215 33.5168 24.7295 33.1235C24.3376 32.7301 24.0709 32.2294 23.9633 31.6846C23.8557 31.1397 23.9119 30.5753 24.1249 30.0624C24.3379 29.5495 24.698 29.1112 25.1599 28.8029C25.6218 28.4946 26.1647 28.33 26.72 28.33C27.0899 28.33 27.4561 28.403 27.7977 28.5449C28.1393 28.6867 28.4495 28.8946 28.7105 29.1566C28.9716 29.4186 29.1784 29.7295 29.319 30.0716C29.4596 30.4137 29.5313 30.7802 29.53 31.15Z" fill="#8BC441"/>
<path d="M84.06 53L62.64 31.6L58.18 41.45L57.18 43.76L56.28 45.76L73.07 62.6C73.9922 63.5006 75.231 64.0033 76.52 64H76.72C77.5232 63.9735 78.3069 63.7467 79 63.34C79.4673 63.0632 79.8834 62.7081 80.23 62.29C81.6868 60.5644 82.8124 58.5845 83.55 56.45C84.8811 56.2358 86.1787 55.8492 87.41 55.3C87.9749 55.0488 88.4846 54.6886 88.91 54.24C88.453 54.3795 87.9778 54.4503 87.5 54.45C86.207 54.4395 84.9704 53.9183 84.06 53ZM69.89 55.21C69.3319 55.212 68.7857 55.0483 68.3206 54.7396C67.8555 54.431 67.4925 53.9913 67.2776 53.4762C67.0626 52.961 67.0053 52.3937 67.113 51.846C67.2207 51.2984 67.4885 50.7949 67.8825 50.3996C68.2764 50.0042 68.7789 49.7346 69.3262 49.625C69.8735 49.5154 70.441 49.5706 70.9569 49.7838C71.4727 49.9969 71.9138 50.3583 72.2241 50.8223C72.5344 51.2863 72.7 51.8319 72.7 52.39C72.7 53.1362 72.4043 53.852 71.8776 54.3805C71.3509 54.9091 70.6362 55.2074 69.89 55.21Z" fill="#F59222"/>
<path d="M49.24 18.2C49.24 18.6549 49.1051 19.0996 48.8524 19.4778C48.5997 19.856 48.2404 20.1508 47.8202 20.3249C47.3999 20.499 46.9375 20.5446 46.4913 20.4558C46.0451 20.3671 45.6353 20.148 45.3137 19.8263C44.992 19.5047 44.7729 19.0949 44.6842 18.6487C44.5955 18.2026 44.641 17.7401 44.8151 17.3198C44.9892 16.8996 45.284 16.5403 45.6622 16.2876C46.0404 16.0349 46.4851 15.9 46.94 15.9L43.18 12.15C42.7094 11.6703 42.3429 11.0985 42.1036 10.4706C41.8643 9.84264 41.7572 9.17203 41.7891 8.50078C41.821 7.82952 41.9913 7.1721 42.2891 6.5697C42.587 5.96729 43.006 5.4329 43.52 5C42.9458 5.09214 42.3933 5.28872 41.89 5.58C40.5251 5.24654 39.125 5.07866 37.72 5.08C35.2139 5.08762 32.7337 5.58706 30.42 6.55C29.2262 7.01762 28.0808 7.60037 27 8.29C26.5497 8.59038 26.1512 8.96188 25.82 9.39C25.1016 10.3299 24.7483 11.4983 24.8255 12.6788C24.9027 13.8593 25.4053 14.9717 26.24 15.81L52.64 42.16L53.54 40.16L54.59 37.84L59 28L49.2 18.19L49.24 18.2Z" fill="#F59222"/>
<path d="M98.82 37.26C98.5541 38.0458 98.0923 38.7509 97.4782 39.3086C96.8641 39.8664 96.1179 40.2583 95.3102 40.4475C94.5025 40.6367 93.6599 40.6168 92.862 40.3898C92.064 40.1627 91.3372 39.7361 90.75 39.15L80.28 28.68L69.81 23.83C68.722 24.9081 67.2517 25.512 65.72 25.51H65.39L64.59 27.3L63.54 29.6L62.64 31.6L84.06 53C84.9778 53.9098 86.2178 54.4201 87.51 54.42C87.9878 54.4203 88.463 54.3495 88.92 54.21C89.5271 54.0319 90.0919 53.7325 90.58 53.33C92.0788 52.1219 93.2941 50.5993 94.14 48.87L94.38 48.33C95.9094 47.1089 97.1463 45.5611 98 43.8C98.5999 42.6037 99.0114 41.3219 99.22 40C99.3553 39.0799 99.227 38.1402 98.85 37.29L98.82 37.26ZM77.71 42.06C76.9099 42.058 76.1282 41.8191 75.4637 41.3733C74.7992 40.9275 74.2817 40.2949 73.9764 39.5553C73.6711 38.8156 73.5917 38.0021 73.7483 37.2175C73.9049 36.4328 74.2904 35.712 74.8562 35.1462C75.422 34.5804 76.1428 34.1949 76.9275 34.0383C77.7121 33.8817 78.5256 33.9611 79.2653 34.2664C80.0049 34.5717 80.6375 35.0892 81.0833 35.7537C81.5291 36.4182 81.768 37.1999 81.77 38C81.7713 38.5336 81.6672 39.0621 81.4637 39.5553C81.2601 40.0484 80.9611 40.4965 80.5838 40.8738C80.2065 41.2511 79.7584 41.5501 79.2653 41.7537C78.7721 41.9572 78.2436 42.0613 77.71 42.06Z" fill="#F15B2A"/>
<path d="M63.61 6.86001C64.26 5.75819 65.3152 4.95427 66.55 4.62001C65.8465 4.10621 65.0173 3.79183 64.15 3.71001C63.29 3.63001 62.41 3.59001 61.56 3.59001C60.1568 3.58776 58.7556 3.69811 57.37 3.92001C55.4816 3.30307 53.5066 2.99247 51.52 3.00001C49.3005 2.99939 47.0965 3.37122 45 4.10001C44.4523 4.28927 43.9439 4.57736 43.5 4.95001C42.9781 5.38315 42.5522 5.92032 42.2495 6.52726C41.9469 7.13419 41.774 7.79755 41.742 8.47502C41.71 9.15249 41.8196 9.82919 42.0637 10.4619C42.3079 11.0947 42.6813 11.6696 43.16 12.15L46.92 15.9C47.53 15.9 48.115 16.1423 48.5464 16.5737C48.9777 17.005 49.22 17.59 49.22 18.2L59 28L60 26L61 23.68L61.17 23.31C60.5006 22.4688 60.0763 21.4592 59.9439 20.3923C59.8116 19.3255 59.9763 18.2427 60.4199 17.2635C60.8635 16.2842 61.5688 15.4464 62.4581 14.8424C63.3474 14.2383 64.3862 13.8915 65.46 13.84L64.37 12.77C63.6099 12.0063 63.1233 11.0129 62.9859 9.94414C62.8484 8.87541 63.0679 7.79121 63.61 6.86001Z" fill="#F15B2A"/>
<path d="M94.61 20C93.1808 18.3943 91.4903 17.0418 89.61 16C89.1688 15.3785 88.6948 14.781 88.19 14.21C85.1248 10.6506 80.8498 8.35272 76.19 7.76001C74.0075 6.34231 71.6194 5.2697 69.11 4.58001C68.0716 4.28589 66.9648 4.34506 65.9637 4.74822C64.9625 5.15137 64.1237 5.87567 63.5789 6.80735C63.0341 7.73902 62.8142 8.82528 62.9537 9.89549C63.0933 10.9657 63.5844 11.9592 64.35 12.72L65.43 13.8H65.7C67.1988 13.801 68.6397 14.3791 69.7234 15.4145C70.8072 16.4498 71.4506 17.8628 71.52 19.36L75.91 21.36L82.17 24.26L93.59 29.54L99.35 32.21C99.3486 27.6912 97.658 23.3361 94.61 20Z" fill="#BD232F"/>
<path d="M17.43 48.09L7.64997 38.31C7.59817 38.7714 7.58146 39.2361 7.59997 39.7C5.53523 42.8952 4.79633 46.7691 5.53997 50.5L14.6 59.56L18.7 51.66C17.8923 50.6438 17.4455 49.3879 17.43 48.09Z" fill="#075DA9"/>
<path d="M23.2 53.85H22.92L18.13 63.09L32.91 77.87C33.23 77.81 33.54 77.73 33.85 77.65C34.1116 78.0792 34.4832 78.4307 34.9263 78.668C35.3693 78.9054 35.8678 79.02 36.37 79C36.7939 79.0008 37.2155 78.9367 37.62 78.81V86.1C37.6179 86.8794 37.9192 87.6289 38.46 88.19L42.46 92.44C42.5985 92.5912 42.767 92.7119 42.9546 92.7945C43.1422 92.8772 43.345 92.9199 43.55 92.92C43.7505 92.9214 43.9492 92.883 44.1348 92.8072C44.3203 92.7314 44.4891 92.6197 44.6313 92.4784C44.7735 92.3371 44.8863 92.1691 44.9634 91.984C45.0404 91.799 45.08 91.6005 45.08 91.4V83.12C45.1102 80.9339 45.4469 78.7627 46.08 76.67C45.8155 76.4894 45.5678 76.2852 45.34 76.06L23.2 53.85ZM32.76 71.09C32.2042 71.09 31.661 70.9252 31.1989 70.6165C30.7368 70.3077 30.3766 69.8688 30.1639 69.3554C29.9512 68.8419 29.8956 68.2769 30.004 67.7318C30.1124 67.1867 30.38 66.6861 30.773 66.2931C31.166 65.9001 31.6667 65.6325 32.2118 65.524C32.7569 65.4156 33.3219 65.4713 33.8353 65.6839C34.3488 65.8966 34.7877 66.2568 35.0964 66.7189C35.4052 67.181 35.57 67.7243 35.57 68.28C35.57 69.0253 35.274 69.74 34.747 70.267C34.22 70.794 33.5053 71.09 32.76 71.09Z" fill="#075DA9"/>
<path d="M23.26 53.86H23.2L45.4 76.06C45.6278 76.2851 45.8755 76.4893 46.1399 76.67C46.3609 75.9859 46.6282 75.3177 46.9399 74.67L25.61 53.36C24.8705 53.69 24.0697 53.8604 23.26 53.86Z" fill="#019681"/>
<path d="M17.43 48C17.432 47.1947 17.5987 46.3984 17.92 45.66L8.27002 36C7.9614 36.732 7.75286 37.5023 7.65002 38.29L17.43 48.07V48Z" fill="#019681"/>
<path d="M93.6099 29.61C93.1224 27.48 92.1532 25.4901 90.7768 23.793C89.4004 22.0959 87.6534 20.7368 85.6699 19.82C85.1861 18.9967 84.6271 18.2201 83.9999 17.5C82.7606 16.0376 81.2328 14.8467 79.5121 14.0018C77.7914 13.157 75.9149 12.6763 73.9999 12.59C71.9917 11.083 69.7143 9.97313 67.2899 9.32001L82.2899 24.32L93.6099 29.61Z" fill="#AE2529"/>
<path d="M93.49 34.79L92 34.08L85.74 31.18L80.33 28.68L90.75 39.15C91.6649 40.0653 92.9058 40.5796 94.2 40.58C95.2194 40.5747 96.2119 40.2522 97.0398 39.6573C97.8677 39.0624 98.4898 38.2245 98.82 37.26L93.49 34.79Z" fill="#BD232F"/>
<path d="M23.26 42.19C24.8045 42.1873 26.2869 42.7976 27.3818 43.8869C28.4768 44.9763 29.0947 46.4555 29.1 48C29.0986 48.2375 29.0819 48.4746 29.05 48.71L42.32 56.71C43.1699 55.9835 44.2117 55.5182 45.32 55.37L14.78 24.87C13.8414 26.6396 13.3375 28.6071 13.31 30.61C11.8209 31.4236 10.5195 32.5411 9.48999 33.89L19.33 43.72C20.4011 42.7341 21.8042 42.1878 23.26 42.19Z" fill="#019681"/>
<path d="M46.11 67C45.3435 67.0013 44.5844 66.8515 43.8759 66.5591C43.1674 66.2667 42.5235 65.8375 41.9811 65.296C41.4387 64.7545 41.0083 64.1113 40.7147 63.4034C40.4211 62.6954 40.27 61.9364 40.27 61.17C40.27 61.17 40.27 61.1 40.27 61.06L31.12 55.56L48.21 72.66C48.814 71.8673 49.5558 71.1898 50.4 70.66C53.4 68.86 53.49 65.2 53.48 63.66L51.88 62C51.6784 63.3872 50.9846 64.6555 49.9252 65.5735C48.8659 66.4914 47.5117 66.9978 46.11 67Z" fill="#019681"/>
<path d="M51.3099 58.5C51.7242 59.3148 51.9401 60.2159 51.9399 61.13C51.9406 61.4111 51.9205 61.6919 51.8799 61.97L53.4899 63.58C53.4899 63.5 53.4899 63.43 53.4899 63.36C54.7726 64.0041 56.1392 64.4653 57.5499 64.73L51.3099 58.5Z" fill="#34B04A"/>
<path d="M46.1099 55.3H46.6799L47.1399 54.3L26.7699 34H26.7199C25.9747 34 25.2599 33.7039 24.733 33.177C24.206 32.65 23.9099 31.9353 23.9099 31.19L15.9099 23.19C15.5028 23.7643 15.1353 24.3657 14.8099 24.99L45.2699 55.36C45.5481 55.3194 45.8288 55.2994 46.1099 55.3Z" fill="#34B04A"/>
<path d="M59 28L49.2 18.19C49.2 18.6449 49.0651 19.0896 48.8124 19.4678C48.5596 19.8461 48.2004 20.1409 47.7801 20.3149C47.3599 20.489 46.8974 20.5346 46.4513 20.4458C46.0051 20.3571 45.5953 20.138 45.2736 19.8164C44.952 19.4947 44.7329 19.0849 44.6442 18.6387C44.5554 18.1926 44.601 17.7301 44.7751 17.3098C44.9491 16.8896 45.2439 16.5304 45.6222 16.2776C46.0004 16.0249 46.4451 15.89 46.9 15.89L43.18 12.15C42.7683 11.7446 42.4299 11.271 42.18 10.75L42 10.94C40.4483 10.2652 38.772 9.92452 37.08 9.94002C35.2047 9.93024 33.3459 10.2904 31.61 11C30.7309 11.3703 29.8902 11.8258 29.1 12.36L54.59 37.85L59 28Z" fill="#F17224"/>
<path d="M58.1799 41.45L67.5499 50.82C67.8886 50.3233 68.3771 49.9478 68.9442 49.7483C69.5113 49.5488 70.1273 49.5357 70.7023 49.711C71.2774 49.8863 71.7813 50.2408 72.1407 50.7228C72.5 51.2047 72.696 51.7889 72.6999 52.39C72.7007 52.8504 72.588 53.3039 72.3717 53.7103C72.1554 54.1167 71.8422 54.4635 71.4599 54.72L75.8899 59.15C77.5919 57.0105 78.7145 54.469 79.1499 51.77C79.4799 51.77 79.7999 51.77 80.1499 51.77C80.9798 51.7735 81.8076 51.6898 82.6199 51.52L62.6199 31.52L58.1799 41.45Z" fill="#F17224"/>
<path d="M62.64 31.6L82.64 51.6C83.3949 51.441 84.132 51.2064 84.84 50.9L63.54 29.6L62.64 31.6Z" fill="#EB2227"/>
<path d="M46.94 15.9C47.55 15.9 48.135 16.1423 48.5663 16.5737C48.9976 17.005 49.24 17.59 49.24 18.2L59 28L60 26L43.69 9.75C43.1761 10.0519 42.6818 10.3859 42.21 10.75C42.4599 11.2709 42.7982 11.7446 43.21 12.15L46.94 15.9Z" fill="#EB2227"/>
<path d="M51.78 55.61L61.3 65.13H61.38C61.9682 65.1325 62.5559 65.0991 63.14 65.03C66.4508 64.7395 69.6552 63.7147 72.52 62.03L56.23 45.76L51.78 55.61Z" fill="#34B04A"/>
<path d="M29.5299 31.15C29.535 31.7457 29.3493 32.3275 28.9999 32.81L48.1799 52L52.6399 42.15L26.2799 15.81C26.1294 15.6595 25.9891 15.4991 25.8599 15.33C25.4502 15.855 25.0856 16.4137 24.7699 17C22.1476 17.6083 19.7431 18.9264 17.8199 20.81L17.4099 21.22L25.0499 28.86C25.5347 28.5053 26.1192 28.3128 26.7199 28.31C27.0915 28.31 27.4593 28.3837 27.8022 28.5267C28.1451 28.6698 28.4562 28.8795 28.7176 29.1436C28.9789 29.4077 29.1852 29.7211 29.3247 30.0655C29.4641 30.4099 29.5339 30.7785 29.5299 31.15ZM43.6199 35.43C44.4254 35.4181 45.2161 35.6461 45.8916 36.0849C46.5672 36.5237 47.0969 37.1536 47.4134 37.8943C47.7299 38.635 47.8189 39.4532 47.6691 40.2447C47.5193 41.0361 47.1374 41.7652 46.5721 42.339C46.0067 42.9128 45.2835 43.3055 44.4943 43.4671C43.7052 43.6286 42.8858 43.5518 42.1404 43.2464C41.395 42.9409 40.7574 42.4206 40.3085 41.7517C39.8597 41.0828 39.62 40.2955 39.6199 39.49C39.6172 38.4228 40.0359 37.3976 40.7849 36.6373C41.5339 35.8771 42.5527 35.4432 43.6199 35.43Z" fill="#34B04A"/>
<path d="M56.23 45.76L72.52 62.05C73.1072 61.6822 73.6685 61.2746 74.2 60.83L57.13 43.76L56.23 45.76Z" fill="#F17224"/>
<path d="M52.64 42.16L53.54 40.16L27.22 13.84C26.7303 14.3022 26.2757 14.8003 25.86 15.33C25.9892 15.4991 26.1295 15.6595 26.28 15.81L52.64 42.16Z" fill="#F17224"/>
<path d="M15.37 68.42C15.3653 68.4899 15.3653 68.5601 15.37 68.63C16.37 73.74 21.07 77.37 26.85 78.12L16 67.22L15.37 68.42Z" fill="#282757"/>
<path d="M12.1899 64.23L12.4699 63.69L7.56995 58.79C8.39497 61.1061 10.038 63.0408 12.1899 64.23Z" fill="#282757"/>
<path d="M7.57 58.79L12.47 63.69L13.47 61.78L6.75 55.07C6.84287 56.343 7.11905 57.5959 7.57 58.79Z" fill="#075DA9"/>
<path d="M16 67.22L26.9 78.12C27.6532 78.2124 28.4112 78.2591 29.17 78.26H29.94L17 65.31L16 67.22Z" fill="#075DA9"/>
<path d="M80.28 28.68L69.81 23.83C68.7219 24.9081 67.2516 25.512 65.72 25.51H65.39L64.59 27.3L73.91 36.62C74.1453 35.9831 74.537 35.4156 75.049 34.9697C75.561 34.5238 76.1769 34.2137 76.8401 34.0681C77.5033 33.9224 78.1924 33.9458 78.8442 34.1361C79.4959 34.3265 80.0894 34.6776 80.5699 35.1572C81.0505 35.6369 81.4028 36.2297 81.5943 36.8811C81.7859 37.5324 81.8107 38.2215 81.6663 38.885C81.5219 39.5484 81.213 40.1649 80.7681 40.6778C80.3231 41.1907 79.7564 41.5835 79.12 41.82L86.88 49.59C87.8279 48.8266 88.5961 47.8638 89.13 46.77C89.3651 46.2826 89.5526 45.7735 89.69 45.25C91.1181 44.4041 92.2684 43.16 93 41.67C93.1757 41.3007 93.326 40.9198 93.45 40.53C92.4154 40.3752 91.4581 39.8913 90.72 39.15L80.28 28.68Z" fill="#EB2227"/>
<path d="M61.16 23.32C60.4905 22.4789 60.0663 21.4692 59.9339 20.4024C59.8015 19.3355 59.9662 18.2528 60.4099 17.2735C60.8535 16.2942 61.5588 15.4564 62.4481 14.8524C63.3374 14.2483 64.3762 13.9015 65.45 13.85L64.37 12.77C63.8246 12.2269 63.416 11.562 63.1778 10.8301C62.9396 10.0982 62.8787 9.32012 63 8.56004C62.29 8.49004 61.6 8.46004 60.92 8.46004C59.3712 8.46603 57.8281 8.64718 56.32 9.00004C54.6046 8.26495 52.7563 7.89052 50.89 7.90004C50.2585 7.89405 49.6273 7.92745 49 8.00004C47.9787 8.13556 46.9737 8.37342 46 8.71004L61 23.71L61.16 23.32Z" fill="#EB2227"/>
<path d="M85.69 31.18L80.28 28.68L90.75 39.15C91.4882 39.8913 92.4454 40.3751 93.48 40.53C93.6098 40.1183 93.7068 39.697 93.77 39.27L85.69 31.18Z" fill="#AE2529"/>
<path d="M64.37 12.77L65.45 13.85H65.72C67.2188 13.851 68.6597 14.4291 69.7434 15.4645C70.8272 16.4998 71.4706 17.9128 71.54 19.41L75.93 21.41L63.07 8.56H63C62.8786 9.32009 62.9396 10.0981 63.1777 10.8301C63.4159 11.562 63.8246 12.2269 64.37 12.77Z" fill="#AE2529"/>
<path d="M22.4478 129.425C21.5953 130.446 20.3903 131.241 18.8328 131.809C17.2752 132.367 15.5492 132.646 13.6549 132.646C11.6659 132.646 9.91886 132.214 8.41391 131.351C6.91949 130.478 5.76184 129.215 4.94096 127.563C4.13061 125.91 3.71491 123.969 3.69386 121.738V120.175C3.69386 117.88 4.07799 115.897 4.84625 114.223C5.62503 112.539 6.74058 111.256 8.19291 110.372C9.65575 109.477 11.3659 109.03 13.3234 109.03C16.0491 109.03 18.1803 109.682 19.7168 110.987C21.2533 112.282 22.1636 114.171 22.4478 116.654H17.8382C17.6278 115.339 17.1594 114.376 16.4333 113.766C15.7176 113.155 14.7284 112.85 13.4655 112.85C11.8553 112.85 10.6292 113.455 9.78731 114.665C8.94538 115.876 8.51915 117.675 8.50863 120.064V121.532C8.50863 123.942 8.96643 125.763 9.88202 126.994C10.7976 128.226 12.1394 128.841 13.9075 128.841C15.6861 128.841 16.9542 128.462 17.7119 127.705V123.742H13.4023V120.254H22.4478V129.425ZM25.2893 123.632C25.2893 121.937 25.6155 120.427 26.268 119.101C26.9205 117.775 27.8572 116.749 29.078 116.023C30.3093 115.297 31.7353 114.934 33.356 114.934C35.6608 114.934 37.5393 115.639 38.9917 117.049C40.4545 118.459 41.2701 120.375 41.4385 122.795L41.4701 123.963C41.4701 126.584 40.7387 128.689 39.2758 130.278C37.813 131.856 35.8502 132.646 33.3876 132.646C30.9249 132.646 28.9569 131.856 27.4836 130.278C26.0207 128.699 25.2893 126.552 25.2893 123.837V123.632ZM29.8515 123.963C29.8515 125.584 30.1567 126.826 30.7671 127.689C31.3775 128.541 32.251 128.968 33.3876 128.968C34.4926 128.968 35.3556 128.547 35.9765 127.705C36.5974 126.852 36.9079 125.495 36.9079 123.632C36.9079 122.043 36.5974 120.811 35.9765 119.938C35.3556 119.064 34.4821 118.628 33.356 118.628C32.2404 118.628 31.3775 119.064 30.7671 119.938C30.1567 120.801 29.8515 122.143 29.8515 123.963ZM57.5561 127.594H49.2526L47.674 132.33H42.6383L51.1943 109.345H55.5829L64.1863 132.33H59.1505L57.5561 127.594ZM50.5313 123.758H56.2775L53.3886 115.155L50.5313 123.758ZM75.284 127.61C75.284 127.052 75.0051 126.615 74.4473 126.3C73.9001 125.973 73.016 125.684 71.7952 125.431C67.7329 124.579 65.7018 122.853 65.7018 120.254C65.7018 118.738 66.328 117.475 67.5803 116.465C68.8432 115.444 70.4902 114.934 72.5214 114.934C74.6894 114.934 76.4206 115.444 77.715 116.465C79.02 117.486 79.6725 118.812 79.6725 120.443H75.1103C75.1103 119.791 74.8998 119.254 74.4789 118.833C74.0579 118.401 73.4002 118.186 72.5056 118.186C71.7374 118.186 71.1427 118.359 70.7218 118.707C70.3008 119.054 70.0903 119.496 70.0903 120.033C70.0903 120.538 70.3271 120.948 70.8007 121.264C71.2848 121.569 72.0952 121.838 73.2318 122.069C74.3684 122.29 75.3261 122.543 76.1049 122.827C78.5149 123.711 79.7199 125.242 79.7199 127.421C79.7199 128.978 79.0516 130.241 77.715 131.209C76.3785 132.167 74.6525 132.646 72.5372 132.646C71.1059 132.646 69.8325 132.393 68.7169 131.888C67.6119 131.372 66.7437 130.672 66.1122 129.788C65.4808 128.894 65.1651 127.931 65.1651 126.9H69.4905C69.5326 127.71 69.8325 128.331 70.3903 128.762C70.948 129.194 71.6953 129.41 72.6319 129.41C73.5054 129.41 74.1632 129.246 74.6052 128.92C75.0577 128.583 75.284 128.147 75.284 127.61ZM88.8758 125.479L87.2341 127.121V132.33H82.6719V108.083H87.2341V121.517L88.1181 120.38L92.4909 115.249H97.9686L91.7963 122.369L98.5054 132.33H93.2644L88.8758 125.479Z" fill="#181832"/>
</g>
<defs>
<clipPath id="clip0">
<rect width="98.37" height="140.42" fill="white" transform="translate(1 3)"/>
</clipPath>
</defs>
</svg>
