<svg width="58" height="50" viewBox="0 0 58 50" fill="none" xmlns="http://www.w3.org/2000/svg">
<path d="M14.7741 9.375C12.8985 9.375 11.0997 10.0335 9.77348 11.2056C8.44723 12.3777 7.70215 13.9674 7.70215 15.625V16.2531L28.918 26.35L50.1339 16.2563V15.625C50.1339 13.9674 49.3888 12.3777 48.0626 11.2056C46.7363 10.0335 44.9375 9.375 43.062 9.375H14.7741Z" fill="#C9515C"/>
<path d="M50.1339 19.8031L29.7561 29.5C29.4985 29.6225 29.2105 29.6867 28.918 29.6867C28.6255 29.6867 28.3376 29.6225 28.08 29.5L7.70215 19.8031V34.375C7.70215 36.0326 8.44723 37.6223 9.77348 38.7944C11.0997 39.9665 12.8985 40.625 14.7741 40.625H43.062C44.9375 40.625 46.7363 39.9665 48.0626 38.7944C49.3888 37.6223 50.1339 36.0326 50.1339 34.375V19.8031Z" fill="#C9515C"/>
</svg>
