<svg width="58" height="50" viewBox="0 0 58 50" fill="none" xmlns="http://www.w3.org/2000/svg">
<path d="M37.7581 3.125C35.2733 3.1245 32.823 3.63838 30.6034 4.62548C28.3839 5.61258 26.4568 7.04544 24.9767 8.80924C23.4965 10.573 22.5044 12.6187 22.0799 14.7824C21.6554 16.9461 21.8103 19.1675 22.5321 21.2688L4.16626 37.5V46.875H14.7742L33.1401 30.6437C35.3287 31.2309 37.6348 31.3941 39.9012 31.1223C42.1676 30.8505 44.3411 30.1501 46.2736 29.0688C48.206 27.9875 49.852 26.5507 51.0993 24.8564C52.3466 23.1621 53.166 21.25 53.5015 19.2505C53.8371 17.251 53.6809 15.2111 53.0437 13.2698C52.4065 11.3284 51.3032 9.5313 49.8091 8.00088C48.3149 6.47045 46.465 5.24269 44.3853 4.40127C42.3057 3.55984 40.0453 3.12453 37.7581 3.125ZM37.7581 28.125C36.5408 28.1244 35.3303 27.9654 34.1655 27.6531L32.1376 27.1094L30.6401 28.4328L25.0162 33.4031L22.5781 31.25L20.0782 33.4594L22.5162 35.6141L19.7122 38.0922L17.2741 35.9375L14.7742 38.1469L17.2123 40.3016L13.3103 43.75H7.70224V38.7937L25.0321 23.4781L26.5313 22.1547L25.9161 20.3625C25.1604 18.1609 25.2095 15.8048 26.0564 13.6293C26.9032 11.4538 28.5048 9.56973 30.6331 8.24504C32.7615 6.92035 35.3083 6.22253 37.9113 6.25083C40.5144 6.27913 43.041 7.03212 45.1318 8.40268C47.2227 9.77325 48.7713 11.6916 49.5573 13.8848C50.3434 16.0781 50.3269 18.4346 49.5102 20.619C48.6934 22.8035 47.1181 24.7048 45.0082 26.0523C42.8983 27.3999 40.3613 28.1252 37.7581 28.125Z" fill="#C9515C"/>
<path d="M39.526 18.75C41.4788 18.75 43.062 17.3509 43.062 15.625C43.062 13.8991 41.4788 12.5 39.526 12.5C37.5731 12.5 35.99 13.8991 35.99 15.625C35.99 17.3509 37.5731 18.75 39.526 18.75Z" fill="#C9515C"/>
</svg>
