<svg width="70" height="69" viewBox="0 0 70 69" fill="none" xmlns="http://www.w3.org/2000/svg">
<path fill-rule="evenodd" clip-rule="evenodd" d="M69.39 13.195C69.39 16.37 67.145 18.955 64.37 18.955H55.015C52.25 18.955 50 16.365 50 13.195V5.75C50 2.575 52.25 0 55.015 0H64.37C67.145 0 69.39 2.58 69.39 5.75V13.195Z" fill="#C9515C"/>
<path fill-rule="evenodd" clip-rule="evenodd" d="M44.39 13.195C44.39 16.37 42.145 18.955 39.37 18.955H30.015C27.25 18.955 25 16.365 25 13.195V5.75C25 2.575 27.25 0 30.015 0H39.37C42.145 0 44.39 2.58 44.39 5.75V13.195Z" fill="#C9515C"/>
<path fill-rule="evenodd" clip-rule="evenodd" d="M19.39 13.195C19.39 16.37 17.145 18.955 14.37 18.955H5.015C2.25 18.955 0 16.365 0 13.195V5.75C0 2.575 2.25 0 5.015 0H14.37C17.145 0 19.39 2.58 19.39 5.75V13.195Z" fill="#C9515C"/>
<path fill-rule="evenodd" clip-rule="evenodd" d="M69.39 38.195C69.39 41.37 67.145 43.955 64.37 43.955H55.015C52.25 43.955 50 41.365 50 38.195V30.75C50 27.575 52.25 25 55.015 25H64.37C67.145 25 69.39 27.58 69.39 30.75V38.195Z" fill="#C9515C"/>
<path fill-rule="evenodd" clip-rule="evenodd" d="M44.39 38.195C44.39 41.37 42.145 43.955 39.37 43.955H30.015C27.25 43.955 25 41.365 25 38.195V30.75C25 27.575 27.25 25 30.015 25H39.37C42.145 25 44.39 27.58 44.39 30.75V38.195Z" fill="#C9515C"/>
<path fill-rule="evenodd" clip-rule="evenodd" d="M19.39 38.195C19.39 41.37 17.145 43.955 14.37 43.955H5.015C2.25 43.955 0 41.365 0 38.195V30.75C0 27.575 2.25 25 5.015 25H14.37C17.145 25 19.39 27.58 19.39 30.75V38.195Z" fill="#C9515C"/>
<path fill-rule="evenodd" clip-rule="evenodd" d="M69.39 63.195C69.39 66.37 67.145 68.955 64.37 68.955H55.015C52.25 68.955 50 66.365 50 63.195V55.75C50 52.575 52.25 50 55.015 50H64.37C67.145 50 69.39 52.58 69.39 55.75V63.195Z" fill="#C9515C"/>
<path fill-rule="evenodd" clip-rule="evenodd" d="M44.39 63.195C44.39 66.37 42.145 68.955 39.37 68.955H30.015C27.25 68.955 25 66.365 25 63.195V55.75C25 52.575 27.25 50 30.015 50H39.37C42.145 50 44.39 52.58 44.39 55.75V63.195Z" fill="#C9515C"/>
<path fill-rule="evenodd" clip-rule="evenodd" d="M19.39 63.195C19.39 66.37 17.145 68.955 14.37 68.955H5.015C2.25 68.955 0 66.365 0 63.195V55.75C0 52.575 2.25 50 5.015 50H14.37C17.145 50 19.39 52.58 19.39 55.75V63.195Z" fill="#C9515C"/>
</svg>
