<svg width="50" height="50" viewBox="0 0 50 50" fill="none" xmlns="http://www.w3.org/2000/svg">
<path d="M25.0001 4.16666C13.7063 4.16666 4.16675 13.7062 4.16675 25C4.16675 36.2937 13.7063 45.8333 25.0001 45.8333C36.2938 45.8333 45.8334 36.2937 45.8334 25C45.8334 13.7062 36.2938 4.16666 25.0001 4.16666ZM25.0001 14.5833C28.598 14.5833 31.2501 17.2333 31.2501 20.8333C31.2501 24.4333 28.598 27.0833 25.0001 27.0833C21.4042 27.0833 18.7501 24.4333 18.7501 20.8333C18.7501 17.2333 21.4042 14.5833 25.0001 14.5833ZM14.3626 34.9417C16.2313 32.1917 19.348 30.3583 22.9167 30.3583H27.0834C30.6542 30.3583 33.7688 32.1917 35.6376 34.9417C32.9751 37.7917 29.198 39.5833 25.0001 39.5833C20.8022 39.5833 17.0251 37.7917 14.3626 34.9417Z" fill="#C9515C"/>
</svg>
